<?xml version="1.0" encoding="utf-8"?>
<!-- Generator: Adobe Illustrator 16.0.4, SVG Export Plug-In . SVG Version: 6.00 Build 0)  -->
<!DOCTYPE svg PUBLIC "-//W3C//DTD SVG 1.1//EN" "http://www.w3.org/Graphics/SVG/1.1/DTD/svg11.dtd">
<svg version="1.1" id="Layer_1" xmlns="http://www.w3.org/2000/svg" xmlns:xlink="http://www.w3.org/1999/xlink" x="0px" y="0px"
	 width="226.77px" height="155.91px" viewBox="0 0 226.77 155.91" enable-background="new 0 0 226.77 155.91" xml:space="preserve">
<g>
	<path d="M154.157,41.476c-21.312,0-35.416,17.425-47.859,32.802c-10.631,13.135-20.67,25.54-32.897,25.54
		c-12.709,0-20.512-13.062-20.512-22.426c0-8.682,8.56-21.299,21.976-21.299c13.018,0,19.8,10.419,20.142,10.953
		c2.109,3.413,6.587,4.487,10.017,2.395c3.447-2.1,4.539-6.597,2.438-10.044c-0.446-0.73-11.167-17.92-32.597-17.92
		c-21.564,0-36.593,18.929-36.593,35.916c0,17.52,14.427,37.043,35.128,37.043c19.199,0,31.94-15.74,44.259-30.963
		c11.396-14.078,22.161-27.379,36.497-27.379c8.531,0,14.135,2.894,17.131,8.84c2.597,5.16,2.595,10.999,2.592,13.023
		c0,1.159-0.613,6.977-3.451,12.217c-3.236,5.967-7.83,8.746-14.469,8.746c-13.369,0-20.592-8.691-23.311-11.964
		c-0.707-0.851-1.216-1.464-1.896-2.046c-3.062-2.624-7.677-2.271-10.305,0.794c-2.534,2.958-2.29,7.353,0.478,10.015
		c0.131,0.15,0.29,0.346,0.48,0.575c3.544,4.266,14.324,17.24,34.553,17.24c24.586,0,32.537-23.972,32.537-35.677
		c0.002-7.455-1.394-14.013-4.154-19.496C180.465,50.66,172.08,41.476,154.157,41.476z"/>
</g>
</svg>
